<?xml version="1.0"?>
<svg version="1.1" id="圖層_1" xmlns="http://www.w3.org/2000/svg" x="0" y="0" viewBox="0 0 100 100" xml:space="preserve"><path d="M77.12 71.913c3.789-4.139 4.792-10.28 2.488-15.395-2.284-5.07-7.467-8.402-13.033-8.339-5.019.056-9.713 2.855-12.17 7.23-2.803 4.993-2.278 11.327 1.322 15.779 4.044 5.001 11.166 6.675 17 3.927l-.168.129c1.032 5.253 6.576 7.97 11.557 6.894-3.386-2.5-5.875-6.169-6.996-10.225z" fill="#abbd81"/><path d="M35.202 45.51c-6.725 0-13.257 3.148-17.414 8.443-4.191 5.338-5.754 12.434-4.13 19.034a22.3 22.3 0 0 0 4.968 9.453c-1.797 2.343-4.058 4.331-6.639 5.768 3.337 2.046 8.679.619 11.593-1.606 9.967 6.149 23.398 3.211 29.968-6.428 5.984-8.78 4.746-20.935-2.845-28.35a22.292 22.292 0 0 0-15.501-6.314z" fill="#849b87"/><path d="M25.327 28.677c-3.662 4-4.676 9.942-2.494 14.912 2.188 4.983 7.206 8.286 12.655 8.291 4.853.005 9.435-2.639 11.898-6.814 2.859-4.848 2.456-11.096-1.019-15.523-3.927-5.002-10.976-6.713-16.745-3.996l.164-.126c-.415-2.112-1.112-3.516-3.029-4.645-2.166-1.276-4.824-1.622-7.269-1.094 3.31 2.443 4.743 5.03 5.839 8.995z" fill="#e15b64"/><path d="M65.172 53.1c6.532.306 13.021-2.454 17.3-7.408 4.314-4.995 6.156-11.814 4.879-18.301a21.686 21.686 0 0 0-4.395-9.409c1.852-2.194 4.14-4.022 6.711-5.3-3.148-2.14-8.402-.996-11.334 1.032-9.447-6.458-22.709-4.158-29.495 5.003-6.118 8.259-5.434 20.038 1.568 27.547A21.673 21.673 0 0 0 65.172 53.1z" fill="#f8b26a"/><metadata xmlns:d="https://loading.io/stock/"><d:name>chat</d:name><d:tags>chitchat,discuss,group meeting,seminar,brainstom,chat,conversation</d:tags><d:license>by</d:license><d:slug>8ecrem</d:slug></metadata></svg>